<?xml version="1.0" encoding="UTF-8"?>
<svg version="1.1" viewBox="0 0 2048 1626" width="141" height="112" xmlns="http://www.w3.org/2000/svg">
<path transform="translate(1042,1)" d="m0 0 5 5 9 12 8 14 11 17 12 19 10 16 16 26 14 22 12 20 8 13 13 21 16 26 11 18 14 22 9 15 13 21 12 19 12 20 15 24 16 26 15 24 11 18 12 19 12 20 9 14 17 28 13 21 15 24 17 28 12 19 14 23 13 21 16 26 10 16 12 18 7 11 4 10-2 6-6 10-14 27-12 22-14 26-13 23-15 28-14 26-10 18-13 25-12 22-14 27-12 22-7 13h302l7 3 10 12 9 13 13 18 14 18 15 20 14 19 12 16 13 17 13 18 13 17 10 13 14 19 24 32 14 18 10 14 14 19 11 14 15 20 8 11 10 13 16 21 13 18 29 38 13 18 14 19 11 14 16 21 8 11 20 26 8 10 6 7v51l-2 1-830-1-5-2-6-8-15-27-15-25-17-28-14-24-10-17-34-58-12-20-17-29-24-40-7-12-6 1-9 13-8 10-13 18-10 14-9 11-10 13-12 16-7 10-18 24-10 13-14 19-24 32-13 17-14 19-12 15-13 17-16 24-3 3-22 1h-789-3-4l1-3 3-1 6-9 12-14 11-13 13-19 10-14 11-15 8-11 14-19 7-10 14-19 11-15 14-19 26-36 12-16 14-19 10-14 9-12 14-19 13-18 14-19 10-14 14-19 10-14 14-19 10-13 10-14 9-12 13-18 9-12 10-14 10-13 30-42 11-15 10-14 13-17 7-10 3-3 3-1h308l-11-19-25-45-14-24-13-23-10-17-8-14-14-24-12-22-10-17-30-52-12-21-9-15-1-4 4-6 6-8 10-16 22-34 13-20 13-21 17-26 8-13 10-15 7-11 15-24 9-14 10-15 9-14 8-13 10-15 11-18 6-9 7-11 9-14 12-19 17-26 14-22 10-15 10-16 22-34 10-16 19-29 24-38 12-18 7-11 12-19 14-22 6-9 9-14 7-11 9-13 13-22 12-18 14-22z" fill="#46A6E7"/>
<path transform="translate(1037,295)" d="m0 0h5l1 3 3 1 8 11 7 10 14 22 12 19 8 13 12 19 10 17 16 26 14 22 10 17 13 21 8 13 13 21 17 28 12 19 16 26 14 23 11 17 21 33 7 9 4 7 9 14 5 10v13l-5 12-36 63-7 14-12 21-6 9-7 10-8 4-12 2h-51l-22 1h-31l-20-1h-204l-24-1-11-2-8-5-4-5-7-10-5-7-8-16-16-28v-2h-2l-7-14-7-11-12-22-5-9-3-9 2-8 5-13 7-10 3-4 3-6 24-36 10-16 6-8 5-9 11-15 5-9 7-10 11-18 10-15 9-14 6-10 10-15 7-10 5-9 7-11 6-10h2l2-5 8-13 5-7 5-9 12-18 6-10 4-5 12-20 7-10 9-14 11-17 13-20 7-10 4-7z" fill="#143F84"/>
<path transform="translate(1501,1164)" d="m0 0 53 1 7 5 10 13 13 17 8 11 14 19 12 16 14 19 42 56 11 15 14 19 9 12 14 18 10 14 9 12 16 21 9 13 5 8-1 5-7 1-20 1h-355l-72-1-13-3-9-8-15-25-10-17-6-11-11-19-10-17-16-27-4-9v-7l13-2 36-1 62-1 1-3 4-4 5-8h2l2-5 4-7 4-10h2l2-6 4-8 3-4 6-12 3-5 1-4h2l1-4 6-12 6-11 11-19 2-4h2l1-7 4-4 4-9 53-1z" fill="#143F84"/>
<path transform="translate(615,1168)" d="m0 0h48l8 5 8 10 30 52v2h2l2 7h2l6 12 13 22 5 9 7 11 8 13 4 3 14 2 27 1 16 1 10 1 4 2 2 5-3 7-13 18-8 11-9 12-10 13-2 3h-2l-2 5-7 9-9 13-13 17-6 8-8 8-13 3-16 1-48-1-6 1h-149l-2-1h-75l-12-1-21-1h-47l-16-1-10-2-3-3 2-7 7-9 3-5h2l1-4 8-11 9-12 5-8 5-5 9-13 11-16 10-12 6-9 3-4h2l2-4 7-11 18-24 8-11 11-15 9-15 5-5 10-14 6-7 15-20 7-11 7-9 2-3h2l2-5 6-5 4-2h7l2 1h19l31-1h18z" fill="#143F84"/>
<path transform="translate(1278,1018)" d="m0 0h38v5l-5 5-7 14-4 7-7 13-3 7-13 23-7 14-6 10-8 16-3 5-8 14-5 6-5 2-6 1-18 1h-74l-265-1-21-2-3-1v-2l-4-2-7-11-4-6-7-14v-3h-2l-12-21-7-14-9-17-8-16-2-5v-3h-2l-3-7-5-8 1-4 4-2 23-1h30l28-1h241l121-1z" fill="#143F84"/>
<path transform="translate(1034,286)" d="m0 0 9 1 6 3v2l4 1 8 10 6 9 7 13 5 7 5 9 6 8 7 11 10 15 11 18 3 6 10 14 4 6 8 11 8 14v2h2l7 12 8 13 8 12v3l3 1 6 10 5 9 8 13 6 10 6 9 6 11 8 11 9 15 7 13 6 9 10 16 14 22 9 14 7 11 6 9 8 11 8 14 6 11 2 18-4 19-4 10-20 36-7 12-4 8-9 15-7 13-7 12-2 3h-2l-2 4-3 5-7 7-5 3-10 3-4 1-14 1h-19l-32-1h-55l-4-1-7 1-8-1h-16l-3 1-7-1h-25l-9 1-22-1-8 1h-116l-17-2-12-4-7-5v-2h-2v-2h-2l-3-5-5-8-3-3-4-8-9-15-8-14-6-10-7-12v-4h-2l-10-19-4-8v-2h-2l-3-7-6-11-3-12 1-8 4-10 6-12 2-1 4-10 9-14 5-8 4-7 9-13 7-10 6-11 7-11 7-10 7-12h2l1-4 5-9 4-5 1-3 2-1 3-5 5-8 3-5 1-2h2l2-5 4-7h2l1-5 2-3h2l1-4 1-3h2l2-4 10-16 5-9h2l2-6 7-11 4-7h2l6-12 3-4h2l2-7 10-15 9-15 10-14 4-7h2l1-4 4-7 4-4 4-8 7-9 6-10 5-8h2l1-4 8-13h2l2-5 8-9h2l2-5h2v-2h2l3-11zm3 9-6 10-9 14-13 20-11 17-9 14-10 15-9 15-7 9-6 11-13 19-5 9-6 9-5 8v2h-2l-6 10-11 17-5 9-7 10-9 14-7 11-11 17-9 14-8 13-7 10-6 10-10 14-6 10-10 15-7 11-10 15-7 11-5 7-3 6-4 5-5 9-6 16 2 9 4 8 8 14 7 13 6 9 7 14h2l2 6 10 17 11 20 4 7 7 10 6 8 8 5 11 2 33 1h196l21 1h30l31-1h44l11-3 6-3 7-10 6-9 15-27 15-28 10-17 3-5 8-14 8-16 1-3v-13l-7-14-10-14-3-5-12-18-8-13-10-15-13-21-8-13-26-42-14-23-16-26-13-21-10-16-13-22-9-14-8-13-11-18-12-20-9-14-16-26-15-23-6-9-7-10-6-8h-2l-1-3z" fill="#3394DB"/>
<path transform="translate(543,1154)" d="m0 0h77l14 1 13 2 19 2 8 5 7 10 6 12 4 6 3 7 3 4 3 7 4 8 13 23 12 21 7 13 8 13 6 9 2 2 5 1h8l11 4 34 2 8 1 23 1 5 4v5l-3 8-6 12-5 6-2 5-9 12-3 5-6 9-10 14-5 8-10 13-7 11-7 9-8 11-14 18-3 3-11 5-12 3h-12l-21 1h-58l-21-1h-23l-11-1h-33l-5 1-18-1h-44l-101-1h-14l-11-1-18-1-16-2-12-4v-7l4-7 28-36 4-6h2l2-4 4-6 9-14 8-12 10-13 2-5 5-5 6-9 7-13 5-7h2l1-5 7-8 5-4 2-5 4-6h2l1-5 8-14 7-8 4-4 7-9 2-1 4-7 4-4 3-7h2l2-5 6-10 1-3 5-5 2-3h2l2-5 8-13 4-6h2l2-5 8-10 6-4 14-3 1-1zm72 14-14 1h-27l-27 1h-13l-2-1h-7l-9 6-3 4v2l-3 1-6 9-8 11-6 9-9 11-6 8-10 13-4 6-3 3-13 20-6 8-8 11-21 28-5 8-1 3-3 1-7 10-7 9-9 12-18 26-3 2-5 9-10 12-7 10v3h-2l-4 6-7 10-1 5 3 3 10 2 26 1h39l22 1 10 1h75l5 1h146l10-1 46 1 13-1 13-3 11-11 9-13 13-17 4-6 8-11v-2h2l13-17 8-11 9-12 12-17 3-7-3-6-6-1-23-2-27-1-14-2-5-4-7-12-7-11-5-9-14-24-5-10h-2l-2-7h-2l-2-6-14-24-11-19-9-13-4-4-6-3z" fill="#2D7FC7"/>
<path transform="translate(822,1576)" d="m0 0h5v2l6 1 2 2-1 4-1 2h-2l-2 9-8 11-2 2-22 1h-603l-98-1-1-2 85-1 11-1 1-2 4-1 2-2 21-1-2-2 9-1-10-1v-1h11v-2h7l8-1 12 1h43l7 1 36 2h27l22 2 6-1h25l30-1h20l4-1h33l12-1 10 1 18-1 7-1 2 1h11l5-1h19l12 1 5 1h26l17 1h13l30 1h17l16-2h13l7-2 16-2 12-2 3-1v-3l9-2h4v-2h9l1-2 7-1 3 1z" fill="#3495DB"/>
<path transform="translate(1490,1153)" d="m0 0h42l10 2 8 1 9 4 5 4v2l4 2 9 7 8 13 10 13 5 6 10 15 1 3h2l5 6v2h2l3 7 9 11 6 8 8 11 14 20v2h2l5 9 3 4v2l3 1 6 9v2h2l5 7v2h2l6 10 3 3 3 5 10 15 1 4h2l4 5 2 6h2l1 4 3 1 3 5 10 13 7 11 11 16 9 11 8 13 3 6-1 7-2 2-26 2h-28l-36 1h-108l-26-1h-227l-10-1-9-3-12-10-5-8-6-11-9-16-8-13-4-8-6-11-8-13-3-4v-4h-2l-6-11-3-5v-2l-3-1-1-6h-2l-6-14-3-8v-6l5-3 18-2 21-1 55 1 10-1 3-1 5 2h3l2-6 4-7h2l2-5 5-6 1 2-7 12-4 4-5 8-5 4-72 1-24 1-13 1 2 9 7 14 13 22 10 17 8 14 6 10 13 23 14 23 8 7 13 3 79 1h351l17-1 7-1-1-5-8-13-16-21-28-38-20-26-13-18-9-12-14-19-10-13-9-12-8-11-24-32-14-19-12-16-8-11-14-18-5-5-3-2-53-1-86 2-3 8-3 4h-2l-1 7h-2l-1 4-9 15-7 14-6 10h-1v-5l3-1 2-7 4-9 3-4 4-8h2v-4l3-3 2-5 7-14 3-5 2-3 10-4 8-2h27l6-1h12z" fill="#2E80C8"/>
<path transform="translate(970,1008)" d="m0 0h163l50 1 29 1 10 1 65 1 25 1 9 1-1 9-9 14-8 16-10 18-6 11-10 17-3 9-10 18-5 8-12 20-5 6-4 2-8 1-106 2h-171l-76-1-28-2-7-3-7-11-6-8-6-11-3-6-6-10-8-14-6-10-3-6-5-8v-4h-2l-5-8-8-16-5-9-7-15v-5l5-3 10-1 65-3 38-1h12l20-1h26zm308 10-54 1-122 1h-247l-30 1h-30l-16 1-3 3 1 5 5 7 2 6h2l1 5 5 12 6 11 12 23 13 23 1 2h2l1 5 9 17 7 10 3 4h2v2l10 2 14 1 280 1h59l18-1 9-2 5-5 6-9 6-11 8-14 6-12 6-10 8-16 8-14 12-24 7-12 3-5 3-3v-5z" fill="#2E80C8"/>
<path transform="translate(1037,295)" d="m0 0h5l1 3 3 1 8 11 7 10 14 22 12 19 8 13 12 19 10 17 16 26 14 22 10 17 13 21 8 13 13 21 17 28 12 19 16 26 14 23 11 17 21 33 7 9 4 7 9 14 5 10v13l-5 12-36 63-7 14-12 21-6 9-7 10-8 4-12 2h-51l-22 1h-31l-20-1h-204l-24-1-11-2-8-5-4-5-7-10-5-7-8-16-16-28v-2h-2l-7-14-7-11-12-22-5-9-3-9 2-8 5-13 7-10 3-4 3-6 24-36 10-16 6-8 5-9 11-15 5-9 7-10 11-18 10-15 9-14 6-10 10-15 7-10 5-9 7-11 6-10h2l2-5 8-13 5-7 5-9 12-18 6-10 4-5 12-20 7-10 9-14 11-17 13-20 7-10 4-7zm2 11-6 9v2l-5 2-5 4-9 15-4 5-3 6v2h-2l-2 6h-2l-6 9-8 13-7 10-7 12-12 18-4 8-8 11-10 16-7 11-10 15-11 18-7 10-9 14-12 19-7 10-5 9-7 10-9 15v2h-2l-5 7-6 11-1 4h-2l-5 7-6 11-2 5h-2l-12 20-7 10-7 12-8 11-4 8v3h-2l-5 6-3 7-2 10 1 9 3 7 6 11 10 17 6 9 7 14 9 15 6 11 9 17 7 11 6 8 2 3 10 3 15 2h23l15 1h43l55 1 33 1h26l15-1 3 1 9-1h47l8-1h67l13-3v-2h2v-2l4-2 6-7 8-14 6-11 8-13 8-16 9-15 6-12 8-13 11-22v-8l-14-23-8-12-10-16-28-44-16-26-11-18-13-21-11-18-13-21-11-18-12-20-8-13-11-18-7-11-8-13-9-15-7-11-12-19-9-14-7-11-11-18-8-10-5-7h-2l-2-5-8-9z" fill="#2466AF"/>
<path transform="translate(1035,291)" d="m0 0h6l5 2v2l4 2 5 6v3h2l16 26 9 14 1 3 2 1 6 11 7 11v2h2l6 11 6 9 5 9 4 6v2h2l1 5h2l3 6 5 7 6 11 7 10 6 10 12 21 6 9 7 11 8 12 8 14 7 11 8 14 8 11 4 8 7 10 6 11 7 12 8 11 6 11 9 14 7 11 1 4h2l7 12 7 10 8 12 9 14 5 10 1 4-1 13-4 13-7 12-8 16-6 11-9 15-6 11-8 14-9 16-6 10-7 11-4 3h-2v2l-9 4-25 2h-13l-7-1-5 1h-22l-7-1-17 1-19-1h-62l-19-1-4 1h-149l-21-2-7-2-9-7-9-13-6-9-6-11-8-15-3-4-5-9-7-12-6-11-9-16-13-24-3-7-1-8 2-6 12-22 10-18 3-5h2l2-6 9-11 3-7h2l5-10 12-18 2-4h2l2-5 8-12 7-11h2l2-5 7-12h2l1-4 8-14 9-13 4-5 4-8 3-3 4-7 1-3h2l2-4 6-11 5-7h2l1-6 4-6 5-9 8-9 5-10 4-4 4-7 5-11h2l2-6 4-4 8-12h2l2-6 2-4 2-1 6-11 5-7 3-5 9-13 3-3 6-12 6-8 7-10 6-11 2-3h2l2-5 4-5zm2 4-6 10-9 14-13 20-11 17-9 14-10 15-9 15-7 9-6 11-13 19-5 9-6 9-5 8v2h-2l-6 10-11 17-5 9-7 10-9 14-7 11-11 17-9 14-8 13-7 10-6 10-10 14-6 10-10 15-7 11-10 15-7 11-5 7-3 6-4 5-5 9-6 16 2 9 4 8 8 14 7 13 6 9 7 14h2l2 6 10 17 11 20 4 7 7 10 6 8 8 5 11 2 33 1h196l21 1h30l31-1h44l11-3 6-3 7-10 6-9 15-27 15-28 10-17 3-5 8-14 8-16 1-3v-13l-7-14-10-14-3-5-12-18-8-13-10-15-13-21-8-13-26-42-14-23-16-26-13-21-10-16-13-22-9-14-8-13-11-18-12-20-9-14-16-26-15-23-6-9-7-10-6-8h-2l-1-3z" fill="#2E80C8"/>
<path transform="translate(1501,1164)" d="m0 0 53 1 7 5 10 13 13 17 8 11 14 19 12 16 14 19 42 56 11 15 14 19 9 12 14 18 10 14 9 12 16 21 9 13 5 8-1 5-7 1-20 1h-355l-72-1-13-3-9-8-15-25-10-17-6-11-11-19-10-17-16-27-4-9v-7l13-2 36-1 62-1 1-3 4-4 3-4-1 7-3 1-1 3-6 3-11 1-50 2-8 1h-17l-17 3 5 13 10 16 9 15 6 12 13 22 12 21 7 11 5 7 3 5 5 5 11 2 10 1h58l7 1 3-1 30 1h168l12-1h42l10 1 21-1 14 1 2-1h19l15-1 14 1h17l3 1h9l-4-8-10-14-12-16-10-13-14-19-13-17-57-76-16-21-12-16-28-38-10-13-8-11-14-17-6-4-103-1-34-1-2 1 1-3 53-1z" fill="#1F5AA3"/>
<path transform="translate(951 1e3)" d="m0 0 82 1h114l27-1h42l27 1 26 2 11 1 25 5 16-1 3 5-4 12-5 9-5 8-9 17-11 19-7 12-3 7-4 3 1-5 9-15 18-33 9-17 6-9 2-9-34-1h-15l-52-1-10-1-27-1-66-1h-147l-33 1h-30l-16 1h-14l-36 1-61 3-13 2-1 1 1 7 6 13 12 22 3 6 2 5h2l2 5 6 10 6 11 7 13 8 13 7 13 6 10 6 8 3 5 6 2 28 2 92 1h160l57-1h33v1l-47 2h-16l-20 1h-33l-47 1-92-1h-28l-26-1h-27l-23-1-17-3-3-2v-2l-3-1-12-18-7-13-8-13-6-12-2-1-4-10-5-7-4-8-6-8-8-15-4-8-6-11-4-10v-6l3-3 21-5 7-1 12-1 9-1 51-2h8l8-1h46z" fill="#3394DB"/>
<path transform="translate(1614,1596)" d="m0 0h6l4 1 4-1 13 1 35 2 7 1h51v1l38-1 7 1 1-1 12 1 1-2h4 8l3 1h58l14 1 1 2-10 1-7-1h-8l-9 1h-20-1-34l-4-2v2h-33l-33 1-10 2v1l-7 1h-454v-1l33-1 28-2h41l14-3 31-2h31l100-2h13l5-1 17 1h9l5-1v2l4-1h10l7-1h13z" fill="#3394DB"/>
<path transform="translate(752,1308)" d="m0 0 6 4 16 1h65l1 4-8 16-11 15-10 14-10 13-10 14-24 32-10 14-8 11-5 5-9 6-5 1-21 2h-239l-51-1h-23l-29-1h-18l-21-1-12-2-3-3 5-10 14-19 9-12v3l-5 7-1 3h-2l-2 5-7 9-2 7 2 2 10 2 26 1h39l22 1 10 1h75l5 1h146l10-1 46 1 13-1 13-3 10-10 9-13 13-17 4-6 8-11 1-2h2l2-4 10-13 8-11 9-12 12-17 3-7-2-5-6-1-23-2-27-1-14-2-6-5z" fill="#266BB3"/>
<path transform="translate(834,1016)" d="m0 0h485l-1 7-7 11-10 18-7 14-9 15-10 19-12 22-14 25-7 10-8 4-16 1-228 1-123-1-18-2-5-2-10-15-1-4h-2l-8-16-7-11-10-19-9-15-6-12-10-18-8-16-4-7v-5l5-2 9-1h20zm444 2-54 1-122 1h-247l-30 1h-30l-16 1-3 3 1 5 5 7 2 6h2l1 5 5 12 6 11 12 23 13 23 1 2h2l1 5 9 17 7 10 3 4h2v2l10 2 14 1 280 1h59l18-1 9-2 5-5 6-9 6-11 8-14 6-12 6-10 8-16 8-14 12-24 7-12 3-5 3-3v-5z" fill="#2365AE"/>
<path transform="translate(732,1272)" d="m0 0h2l6 10 7 11 5 6 5 1h8l11 4 34 2 8 1 23 1 5 4v5l-3 8-6 12-5 6-2 5-9 12-3 5-6 9-10 14-5 8-10 13-7 11-7 9-8 11-14 18-3 3-11 5-12 3h-12l-21 1h-58l-21-1h-23l-11-1h-33l-5 1-18-1h-44l-101-1h-14l-11-1-18-1-16-2-12-4v-7l4-7 14-18 6-7v3l-9 12-10 14-1 6 2 2 11 2 31 2h12l14 1h59l70 1h126l23 1h43l23-1 11-3 8-4 9-10 14-20 8-11 13-17 11-15 3-5 10-14 12-17 8-11 7-11 3-9v-4l-9-1h-76l-7-8-18-30z" fill="#3394DB"/>
<path transform="translate(1351,1283)" d="m0 0 1 2-7 12-4 4-5 8-11 2h-79l-16 1h-11l1 9 9 19 8 13 6 10 6 11 9 15 9 16 5 8 6 11 8 14 7 11 5 6 12 6 10 1h56l29 1h304l48-1 16-2-1-6-7-12-8-11-3-4 1-2 6 7 8 11 6 11 1 7-3 4-26 2h-28l-36 1h-108l-26-1h-227l-10-1-9-3-12-10-5-8-6-11-9-16-8-13-4-8-6-11-8-13-3-4v-4h-2l-6-11-3-5v-2l-3-1-1-6h-2l-6-14-3-8v-6l5-3 18-2 21-1 55 1 10-1 3-1 5 2h3l2-6 4-7h2l2-5z" fill="#3394DB"/>
<path transform="translate(567,1160)" d="m0 0h48l51 2 5 3v2l4 2 8 14 20 36 6 11 7 13 2 7-3-3v-3h-2l-2-4v-3h-2l-10-18-14-24-10-16-6-7-6-3h-48l-14 1h-27l-27 1h-13l-2-1h-7l-9 6-3 5-3 3-12 16-6 10-7 8-8 11-8 10-8 11h-2l-2 5-11 17-6 8-8 11-21 28-5 8-8 9-7 11-8 9-10 15-7 10-6 8-2 1-5 9-4 3 7-14 7-9 7-11 11-15 3-3 1-3 5-5 5-7 4-7 7-9 9-13 12-15 6-9h2l2-6 7-11 7-9 1-2h2l2-5 3-4h2l2-4 10-14 3-4h2l2-6h2l2-5 7-10 11-16 5-6 8-12 5-4 6-2 16-1h16z" fill="#2D7FC7"/>
<path transform="translate(828,622)" d="m0 0v3l-14 22-10 15-7 11-7 10-6 11-6 7-5 13-1 5v7l3 8 14 25 8 13 6 11 8 14 5 8 6 11 9 17 8 12 3 4v2h2l5 5 9 2 20 1h41l5 1h28l2-1 7 1h253l11-2 9-6 11-16 24-44 13-24 4-5 6-11 11-21 2-10v-5h2v13l-5 12-36 63-7 14-12 21-6 9-7 10-8 4-12 2h-51l-22 1h-31l-20-1h-204l-24-1-11-2-8-5-4-5-7-10-5-7-8-16-16-28v-2h-2l-7-14-7-11-12-22-5-9-3-9 2-8 5-13 7-10 3-4 3-6 24-36 10-16z" fill="#266BB3"/>
<path transform="translate(819,638)" d="m0 0 1 2-9 15-6 9-6 10-8 11-5 11h-2l-2 4-2 2-3 7-2 10 1 9 3 7 6 11 10 17 6 9 7 14 9 15 6 11 9 17 7 11 6 8 1 3 10 2 15 2h23l15 1h43l55 1 33 1h26l15-1 3 1 9-1h47l8-1h67l13-2v-2h2v-2l7-6 8-13 8-15 8-13 8-16 9-15 6-12 8-13 11-22v-8l-14-23-8-12-3-4 1-3 8 11 15 24 3 5 1 9-4 11-12 23-7 10-9 17-10 18-8 15-6 10-5 10-8 11-5 6-7 4-14 2h-255l-3-1-2 1h-28l-7-1h-46l-12-1-9-2-5-4v-2h-2l-14-21-8-16-5-9-9-15-8-14-11-19-13-23-3-8v-7l4-13 4-8 6-7 5-9 6-9 7-11 10-15z" fill="#1F5AA3"/>
<path transform="translate(543,1154)" d="m0 0h77l14 1 13 2 19 2 8 5 7 10 6 12 4 6 3 7 3 4 3 7 4 8 13 23 8 14-1 2-3-2-1-4-3-3-3-7-10-18-12-22-14-26-5-7-2-1v-2l-5-2-58-2h-41l-10 1h-15l-16 1-9 4-8 11-4 6-7 9-16 24h-2l-1 4-1 2h-2l-2 4-10 14-8 9-2 4h-2l-2 5-9 12-5 9-1 2h-2l-2 5-12 15-11 15-4 6-7 9-5 9-5 6h-2l-1 4h-2l-2 5-12 16-9 14-5 7-2-1 8-13 8-12 10-13 2-5 5-5 6-9 7-13 5-7h2l1-5 7-8 5-4 2-5 4-6h2l1-5 8-14 7-8 4-4 7-9 2-1 4-7 4-4 3-7h2l2-5 6-10 1-3 5-5 2-3h2l2-5 8-13 4-6h2l2-5 8-10 6-4 14-3 1-1z" fill="#3394DB"/>
<path transform="translate(1490,1153)" d="m0 0h42l10 2 8 1 9 4 5 4v2l4 2 9 7 8 13 10 13 5 6 10 15 1 3h2l5 6v2h2l3 7 9 11 6 8 8 11 14 20v2h2l5 9 3 4v2l3 1 6 9v2h2l5 7v2h2l6 10 3 3 3 5 10 15 1 4h2l4 5 2 6h2l1 4 3 1 3 5 10 13 7 11 9 13-1 2-8-10-16-22-11-15-10-13-12-16-4-7-4-5v-2h-2l-7-11-11-14-12-16-3-5-9-13-2-1-3-5v-2h-2l-1-4h-2l-4-6-7-9v-2h-2l-6-9-6-8-5-8-3-3-13-17-14-19-7-10-8-7v-2l-4-1-11-2h-74l-40 1-15 3-4 9-2 1-3 11h-2l-1 4-9 15-7 14-6 10h-1v-5l3-1 2-7 4-9 3-4 4-8h2v-4l3-3 2-5 7-14 3-5 2-3 10-4 8-2h27l6-1h12z" fill="#3394DB"/>
<path transform="translate(1340,1301)" d="m0 0 1 3-2 5h-2l-1 3-6 3-11 1-50 2-8 1h-17l-17 3 5 13 10 16 9 15 6 12 13 22 12 21 5 8 3 7 8 13 7 4 2 1 13 1 5 1h444l1-4 1 5-1 1-7 1-20 1h-355l-72-1-13-3-9-8-15-25-10-17-6-11-11-19-10-17-16-27-4-9v-7l13-2 36-1 62-1 1-3 4-4z" fill="#266BB3"/>
<path transform="translate(798,1373)" d="m0 0 1 2-8 11-7 9-11 15-9 12-13 18-10 11-8 4-10 1-30 1h-193l-92-1-15-1h-38l-30-2-6-3-1-5 4-5v5l2 2 10 2 26 1h39l22 1 10 1h75l5 1h146l10-1 46 1 13-1 13-3 10-10 9-13 13-17 4-6 8-11 1-2h2l2-4z" fill="#1F5AA3"/>
<path transform="translate(1470,1160)" d="m0 0h74l11 2 4 2v2l4 2 7 7 7 11 13 17 10 13 2 5 3 1 6 9 8 11 2 5h2l7 10 4 5v2h2l1 4h2l3 4v3l3 1 9 13 8 11 4 6 11 14 9 13v2h2l8 11 3 5 9 13 9 11 13 18 12 16 4 6-1 2-9-11-28-38-9-11-12-17-9-12-14-19-13-17-9-12-8-11-24-32-14-19-12-16-8-11-14-18-5-5-3-2-53-1-86 2-3 8-4 4 1-5h2l2-8 5-3 12-2z" fill="#2D7FC7"/>
<path transform="translate(2044,1593)" d="m0 0h4v17l-2 1-138-1-43-1 1-2 47-1 7-1h16l2-1 13 1h3v-2l-3-1 5-2 7 1 3-1 5 1 51-1h19l1-5z" fill="#3394DB"/>
<path transform="translate(1501,1164)" d="m0 0 53 1 7 5 10 13 13 17 8 11 14 19 12 16 14 19 42 56 11 15 14 19 9 12 14 18 10 14 9 12 16 21 9 13 3 5v2h-2l-8-13-14-19-11-14-14-19-16-21-57-76-16-21-12-16-28-38-10-13-8-11-14-17-6-4-103-1-34-1-2 1 1-3 53-1z" fill="#2363AC"/>
<path transform="translate(862,1018)" d="m0 0h366l-4 2-122 1h-247l-30 1h-30l-16 1-2 2 1 5 5 7 1 6h2l6 15 5 9 9 17 6 11-1 3-6-10-15-27-14-28-5-9 1-4z" fill="#1F5AA3"/>
<path transform="translate(871,1016)" d="m0 0h448l-1 7-7 11-10 18-7 14-9 15-10 19-12 22-14 25-2 1 2-6 5-9 8-14 6-12 6-10 8-16 8-14 12-24 7-12 3-5 3-3-1-4h-445l-1-2z" fill="#266BB3"/>
<path transform="translate(526,1165)" d="m0 0h137l7 3 8 10 10 18-1 2-12-19-6-7-6-3h-48l-14 1h-27l-27 1h-13l-2-1h-7l-9 6-3 5-3 3-12 16-6 10-7 8-8 11-4 3 2-4 8-11 13-18 6-9 15-20 6-4z" fill="#1F5AA3"/>
<path transform="translate(1340,1301)" d="m0 0 1 3-2 5h-2l-1 3-6 3-11 1-50 2-8 1h-17l-17 3 5 13 10 16 9 15 6 12 13 22 12 21 5 8-1 2-5-4-11-20-10-17-8-14-10-17-16-27-4-9v-7l13-2 36-1 62-1 1-3 4-4z" fill="#1F5AA3"/>
<path transform="translate(752,1308)" d="m0 0 6 4 16 1h65l1 4-8 16-11 15-10 14-5 6-7 5 2-5 10-12 13-19 5-7 1-5-2-4-6-1-23-2-27-1-14-2-6-5z" fill="#2466AE"/>
<path transform="translate(922,478)" d="m0 0 1 2-11 18-7 10-9 14-12 19-7 10-5 9-7 10-10 17h-2l-2 5-5 8-5 9h-2l-2 5-6 9-5 9h-2l-2 5-2 1 2-5 6-9v-5l14-20 10-16 6-9 8-13 10-15 9-14 6-10 10-15 7-9 4-4z" fill="#2160A9"/>
<path transform="translate(18,1589)" d="m0 0 4 2 2 4 5 2 6 3v2l5 2 2 2 5 1h17l6 1v1l-62 1h-3-4l1-3 3-1 6-9z" fill="#3494DB"/>
<path transform="translate(1212,568)" d="m0 0 3 1 14 23 7 11 14 23 11 17 21 33 7 9 4 7 9 14 4 7-1 3-6-9-13-21-7-10-5-5-15-24-16-25-16-26-11-18-3-7z" fill="#2365AD"/>
<path transform="translate(1351,1283)" d="m0 0 1 2-7 12-4 4-5 8-11 2h-79l-16 1h-11l1 9 2 4-1 3-3-3-2-7v-6l5-3 18-2 21-1 55 1 10-1 3-1 5 2h3l2-6 4-7h2l2-5z" fill="#3293DA"/>
<path transform="translate(472,1232)" d="m0 0v3l-11 15h-2l-2 5-11 17-6 8-8 11-21 28-5 8-8 9-7 11-8 9-10 15-7 10-6 8-2 1-5 9-4 3 7-14 7-9 7-11 11-15 3-3 1-3 5-5 6-8 5-5 6-8 9-13 10-13 5-7h2l2-5 13-19 9-13 8-10z" fill="#2B79C1"/>
<path transform="translate(511,1176)" d="m0 0v3l-8 11-7 10-20 28-11 14-7 9-13 19-7 10-5 8h-2l-2 4-12 16-9 13-10 13h-2l2-4 6-8 8-12 11-14 10-14h2l2-6 7-11 7-9 1-2h2l2-5 3-4h2l2-4 10-14 3-4h2l2-6h2l2-5 7-10 11-16z" fill="#2E80C8"/>
<path transform="translate(795,1605)" d="m0 0h20l5 1-1 3h-128l1-3h50z" fill="#2A77BF"/>
<path transform="translate(526,1165)" d="m0 0h137l7 3 3 3-1 2-6-5h-140l-8 4-3 2 2-4 6-4z" fill="#266BB3"/>
<path transform="translate(1281,1017)" d="m0 0h36l1 3-2 6-7 11-6 12-12 22-8 14-10 18-6 11-10 19-9 15-1-2 7-13 8-14 6-12 6-10 8-16 8-14 12-24 7-12 3-5 3-3-1-4h-35z" fill="#2262AB"/>
<path transform="translate(1501,1164)" d="m0 0 53 1 7 5 7 9-1 2-7-8v-2l-4-2-3-1h-91l-9 1-37-1-2 1 1-3 53-1z" fill="#256AB2"/>
<path transform="translate(1038,299)" d="m0 0 5 1 9 11 6 9 8 11 8 13 1 4-4-4-7-11-9-11v-2h-2l-4-6-6-7-5 1-5 9-9 6-9 15-4 3 2-5 9-14 12-17z" fill="#1F5AA3"/>
<path transform="translate(871,1016)" d="m0 0h146l8 1v1l-10 1h-146l-1-2z" fill="#266BB3"/>
<path transform="translate(1010,341)" d="m0 0 1 2-4 8h-2l-2 6h-2l-2 5-7 10-4 7-7 10-7 12-12 18-2-4 6-10 4-5 12-20 7-10 9-14 5-4z" fill="#2466AF"/>
<path transform="translate(1340,1301)" d="m0 0 1 3-2 5h-2l-1 3-6 3-10 1h-57l-39 2 2 11-3-4-1-2v-7l13-2 36-1 62-1 1-3 4-4z" fill="#256AB2"/>
<path transform="translate(1676,1327)" d="m0 0 4 2 8 11 13 18 8 10 15 20 14 19 27 36 4 7v2h-2l-8-13-14-19-11-14-14-19-16-21-27-36z" fill="#2263AB"/>
<path transform="translate(1037,295)" d="m0 0h5l1 3 3 1 8 11 7 10 9 14-1 2-8-10-4-6-4-5-3-5-8-10h-4l-7 11-10 14-10 16-8 12h-2l2-5 15-23 11-16 4-7z" fill="#266BB3"/>
<path transform="translate(764,1315)" d="m0 0h72l1 4-6 12-2 1 1-7-2-4-6-1-23-2-27-1-8-1z" fill="#1F5AA3"/>
<path transform="translate(1982,1606)" d="m0 0 14 1 10-1 19 1 4 1 19 1-2 2-90-1-2-2 1-1z" fill="#2E80C8"/>
<path transform="translate(1292,1069)" d="m0 0v3l-8 15-7 12-3 9-10 18-5 8-12 20-2 2 1-6 15-26 9-17 18-33z" fill="#2E80C8"/>
<path transform="translate(472,1232)" d="m0 0v3l-11 15h-2l-2 5-11 17-6 8-8 11-21 28-5 8-8 9v-3l9-12 9-13 10-13 5-7h2l2-5 13-19 9-13 8-10z" fill="#2262AB"/>
<path transform="translate(1462,1167)" d="m0 0h91l7 4 7 9-1 2-9-10-4-2-93-1z" fill="#1F5AA3"/>
<path transform="translate(1215,1016)" d="m0 0h104l-1 7-1-4v-2l-36 1-3 1h-65l-1-2z" fill="#2466AF"/>
<path transform="translate(861,573)" d="m0 0 1 2-7 12h-2l-2 5-5 8-5 9h-2l-2 5-6 9-5 9h-2l-2 5-2 1 2-5 6-9v-5l14-20 6-9 4-2 2-4z" fill="#266BB3"/>
<path transform="translate(795,1605)" d="m0 0h20l5 1-1 3-84-1v-1l7-1z" fill="#2E80C8"/>
<path transform="translate(812,1098)" d="m0 0 3 3 9 16v2h2l10 21 2 2 1 6-5-5-1-4h-2l-8-16-7-11-5-9z" fill="#266BB3"/>
<path transform="translate(804,1368)" d="m0 0v3l-13 18-24 32-10 14-3 4h-2l2-5 10-13 11-15 9-12 10-13 7-10z" fill="#266BB3"/>
<path transform="translate(1480,716)" d="m0 0 4 1 2 1-1 5-5 8-9 3v-3l-2-1 2-2 3-8z" fill="#3394DB"/>
<path transform="translate(1258,1383)" d="m0 0 3 1 13 23 13 22-1 2-5-4-11-20-10-17-2-3z" fill="#2263AB"/>
<path transform="translate(718,1250)" d="m0 0 3 1v4l5 2 7 12 1 6 17 28-1 4-5-9-7-11-5-9-14-24z" fill="#2E86CE"/>
<path transform="translate(1042,1)" d="m0 0 4 4 1 5-2 4-6 3-2 4-5 4h-1v-7z" fill="#3596DC"/>
<path transform="translate(1281,1017)" d="m0 0h36l1 3-2 6-7 11-6 12-2 3h-2l-2 5-2 2 1-5 6-11 7-12 3-5 3-3-1-4h-35z" fill="#205EA7"/>
<path transform="translate(690,1196)" d="m0 0 3 1 4 6 3 7 4 8 13 23 8 14-1 2-3-2-1-4-3-3-3-7-10-18-12-22z" fill="#3394DB"/>
<path transform="translate(513,1175)" d="m0 0 1 4-4 5-12 16-6 10-7 8-8 11-4 3 2-4 8-11 13-18 6-9 6-8z" fill="#2263AB"/>
<path transform="translate(627,1167)" d="m0 0h39l10 8 12 21-1 2-12-19-6-7-6-3h-36z" fill="#1F5AA3"/>
<path transform="translate(1271,1313)" d="m0 0m-12 0h10l2 2-8 1-39 2 2 11-3-4-1-2v-7l13-2z" fill="#266BB3"/>
<path transform="translate(689,1200)" d="m0 0 4 4 2 4 4 4 7 13 10 18 2 7-3-3v-3h-2l-2-4v-3h-2l-10-18-10-17z" fill="#2870B8"/>
<path transform="translate(1405,1183)" d="m0 0 1 3h-2l-1 4-9 15-7 14-6 10h-1v-5l3-1 2-7 4-9 3-4 4-8h2v-4l3-3 2-4z" fill="#318DD4"/>
<path transform="translate(873,552)" d="m0 0h1l-1 7-3 3-4 7-7 8-7 11h-2l2-5 6-9 8-13 6-8z" fill="#2365AD"/>
<path transform="translate(1075,348)" d="m0 0 4 4 14 22 8 13 10 16 2 5-5-5-7-12-14-22-9-14-3-5z" fill="#1F5AA3"/>
<path transform="translate(1645,1284)" d="m0 0 5 5 24 32 4 5-1 2-5-5-10-13-14-19-3-4z" fill="#2364AC"/>
<path transform="translate(2013,1520)" d="m0 0h4l11 14v4l-4-1-7-6z" fill="#3595DC"/>
<path transform="translate(1271,1109)" d="m0 0 1 3-8 14-5 8-12 20-2 2 1-6 13-22 3-3 8-15z" fill="#308AD1"/>
<path transform="translate(352,1393)" d="m0 0 1 3-3 4-2 5-5 6-5 5-5 4-2-1 10-13 2-3h2l2-4z" fill="#2F87CE"/>
<path transform="translate(861,573)" d="m0 0 1 2-7 12h-2l-2 5-5 8-5 9h-2l-2 5-3 2 2-5 7-10 1-6 6-7h2l2-4z" fill="#205EA6"/>
<path transform="translate(1161,191)" d="m0 0 3 1 9 15v4l-5-2-5-7-3-7z" fill="#3596DC"/>
<path transform="translate(1456,1165)" d="m0 0 3 1v3l-43-1-2 1 1-3z" fill="#2262AB"/>
<path transform="translate(960,419)" d="m0 0 1 3-9 13-10 16-9 14-4 6-1-2 9-15 10-15 7-11z" fill="#1F5AA3"/>
<path transform="translate(1212,568)" d="m0 0 3 1 14 23 2 5-7-6-8-13-3-7z" fill="#2466AE"/>
<path transform="translate(888,529)" d="m0 0 1 4-14 21-2-3 8-13 6-8z" fill="#2364AC"/>
<path transform="translate(1142,455)" d="m0 0 4 4 7 12 5 5 4 7v5l-3-3-11-18-6-10z" fill="#215FA8"/>
<path transform="translate(1229,1335)" d="m0 0 4 4 9 15 11 20 2 5-4-4-13-23-9-15z" fill="#266BB3"/>
<path transform="translate(1132,438)" d="m0 0 4 2 18 30-1 2-6-9-4-7-5-5-3-7z" fill="#2569B1"/>
<path transform="translate(1258,1383)" d="m0 0 3 1 12 21-1 2-5-5-9-15z" fill="#2261AA"/>
<path transform="translate(1198,547)" d="m0 0 4 4 7 8 4 7 1 5 2 5-4-4-12-20z" fill="#2160A8"/>
<path transform="translate(731,1273)" d="m0 0h2l18 30-1 4-5-9-7-11-5-9z" fill="#2974BC"/>
<path transform="translate(812,1098)" d="m0 0 3 3 9 16v2h2l8 17-1 2-4-7-12-22-5-8z" fill="#1F5AA3"/>
<path transform="translate(976,108)" d="m0 0 2 1-5 10-5 4h-3l2-5 5-7z" fill="#3898DD"/>
<path transform="translate(707,1227)" d="m0 0 3 1 13 24 2 5-4-2-1-4-3-3-3-7z" fill="#3394DB"/>
<path transform="translate(922,478)" d="m0 0 1 2-11 18-7 10-3 3 2-7 3-5 5-5z" fill="#1F5AA3"/>
<path transform="translate(970,402)" d="m0 0h2l-2 5-8 12-2-4 5-8z" fill="#2364AC"/>
<path transform="translate(381,1356)" d="m0 0v3l-8 12-7 10-6 8v-3l12-18z" fill="#2262AA"/>
<path transform="translate(341,1411)" d="m0 0v3l-5 7-1 3h-2l-2 5-7 9-2 2 1-5 14-19z" fill="#2262AA"/>
<path transform="translate(1244,1153)" d="m0 0 1 4-3 3-4 2-8 1h-14l2-2 16-1 8-4z" fill="#2F87CE"/>
<path transform="translate(704,1225)" d="m0 0 3 1 9 17 2 7-3-3v-3h-2l-2-4v-3h-2l-5-9z" fill="#2974BC"/>
<path transform="translate(922,476)" d="m0 0v3l-9 15-3 4-2-1 5-9 7-10z" fill="#266BB3"/>
<path transform="translate(1068,45)" d="m0 0 6 2 2 6v2l-6-1-3-7z" fill="#3595DC"/>
<path transform="translate(821,1345)" d="m0 0v3l-10 14-5 6-2-1 12-16zm-18 23m-1 1m-2 1 2 1-3 2z" fill="#2569B1"/>
<path transform="translate(492,1205)" d="m0 0 1 3-13 17-6 7v-3l8-10 6-9z" fill="#2364AC"/>
<path transform="translate(1234,311)" d="m0 0 6 4 4 7-1 3-4-2-5-8z" fill="#3596DC"/>
<path transform="translate(335,1417)" d="m0 0v3l-14 19-2 3h-2l2-4 14-19z" fill="#2E80C8"/>
<path transform="translate(1010,341)" d="m0 0 1 2-4 8h-2l-2 6h-2l-2 5-5 5 2-5 10-15z" fill="#1F5AA3"/>
<path transform="translate(1271,1109)" d="m0 0 1 3-8 14-5 8h-1v-5l4-4 8-15z" fill="#3292D9"/>
<path transform="translate(931,462)" d="m0 0 1 2-3 5-2 5-4 4-1-4 4-7h2l2-4z" fill="#2467AF"/>
<path transform="translate(673,1173)" d="m0 0 5 5 10 18-1 2-12-19-2-3z" fill="#2263AB"/>
<path transform="translate(1144,166)" d="m0 0 4 1 5 8v3h-3l-2-4-3-3z" fill="#3798DE"/>
<path transform="translate(995,1363)" d="m0 0h5v5l-6 3v-2h-2l2-5z" fill="#3495DB"/>
<path transform="translate(904,504)" d="m0 0v3l-2 6-5 5-2 3h-2l2-5 8-11z" fill="#256AB2"/>
<path transform="translate(1119,122)" d="m0 0h2l5 8v5l-2-1v-2h-3l-3-9z" fill="#3697DD"/>
<path transform="translate(1389,1209)" d="m0 0h2l-2 6-8 14h-1v-5l3-1 2-7 3-6z" fill="#308AD2"/>
<path transform="translate(1305,1041)" d="m0 0 1 2-5 9h-2l-2 5-2 2 1-5 6-11z" fill="#2160A9"/>
<path transform="translate(1048,11)" d="m0 0 6 4v4l-5 1v-2h-2z" fill="#3394DB"/>
<path transform="translate(833,616)" d="m0 0 1 3-8 13h-2l-2 5-2 1 2-5z" fill="#1F5AA3"/>
<path transform="translate(1299,1052)" d="m0 0 1 3-10 18-1-4 5-10h2l2-5z" fill="#2365AE"/>
<path transform="translate(1352,501)" d="m0 0h3l5 8-1 4-5-5-2-4z" fill="#3697DD"/>
<path transform="translate(1703,1362)" d="m0 0 5 5 9 12h-3l-10-13z" fill="#2364AC"/>
<path transform="translate(456,1253)" d="m0 0 2 1-10 15-3 1 2-5z" fill="#2363AC"/>
<path transform="translate(861,571)" d="m0 0v3l-7 11-2 3h-2l2-5 8-11z" fill="#266BB3"/>
<path transform="translate(1634,1271)" d="m0 0 5 3 6 8-1 4-10-13z" fill="#2262AA"/>
<path transform="translate(829,1134)" d="m0 0 3 1 6 7 1 6-5-5-1-4h-2z" fill="#2467AF"/>
<path transform="translate(990,372)" d="m0 0 1 3-8 11-2-4 4-4h2l2-5z" fill="#2160A9"/>
<path transform="translate(1278,1094)" d="m0 0v3l-4 11-2 1v-6z" fill="#2F86CE"/>
<path transform="translate(718,1250)" d="m0 0 3 1v4l3 1 2 4-1 4-7-12z" fill="#2770B8"/>
<path transform="translate(1612,1240)" d="m0 0 5 5 4 5-1 2-5-4-3-5z" fill="#2365AD"/>
<path transform="translate(1411,1169)" d="m0 0 1 3-3 3-3 8h-3l6-12z" fill="#3290D7"/>
<path transform="translate(1405,1183)" d="m0 0 1 3h-2l-1 4-4 7h-1v-6l3-3 2-4z" fill="#2D81C8"/>
<path transform="translate(1456,1165)" d="m0 0 3 1v3h-9l-1-3z" fill="#2364AD"/>
<path transform="translate(426,1295)" d="m0 0 2 1-10 14-1-3z" fill="#2161A9"/>
<path transform="translate(908,498)" d="m0 0 1 4-6 9-1-2 2-5 3-5z" fill="#2262AA"/>
<path transform="translate(1351,1283)" d="m0 0 1 2-7 12h-1v-5z" fill="#2873BB"/>
<path transform="translate(717,1245)" d="m0 0 3 1 5 9-1 2-3-2-1-4-3-3z" fill="#3290D7"/>
<path transform="translate(710,1236)" d="m0 0h2l5 8 1 6-3-3v-3h-2z" fill="#2872BB"/>
<path transform="translate(390,1345)" d="m0 0v3l-7 8-2-3 3-3z" fill="#266BB3"/>
<path transform="translate(416,1308)" d="m0 0 1 3-7 10h-2l2-5z" fill="#2364AC"/>
<path transform="translate(697,1214)" d="m0 0 6 5 2 6-2 1-6-10z" fill="#276FB7"/>
</svg>
