<?xml version="1.0" encoding="UTF-8"?>
<svg version="1.1" viewBox="0 0 2048 1762" width="782" height="673" xmlns="http://www.w3.org/2000/svg">
<path transform="translate(1265,1)" d="m0 0h18l20 4 15 5 21 11 16 10 28 17 177 109 21 13 23 14 16 10 73 45 47 29 47 29 89 55 21 13 23 14 11 9 10 9 11 14 9 17 5 15 3 17 1 26v39l-1 194-3 110-4 95-2 17-8 26-5-2-28-17-22-14-72-45-52-32-25-15-56-34-17-10-56-34-32-19-13-8-40-24-28-17-32-19-28-17-29-17-28-17-64-38-28-17-26-15-25-15-13-9-11-9-14-14-10-14-8-15-6-19-3-20v-33l2-48 3-113 2-96 1-41 1-22 3-18 5-16 8-16 7-9 7-8 12-9 15-7z" fill="#1B42B8"/>
<path transform="translate(23,758)" d="m0 0 4 1 12 13 12 11 17 13 18 12 15 9 25 14 26 14 54 32 28 17 29 17 28 17 29 17 28 17 16 9 40 24 29 17 28 17 16 9 28 17 16 9 73 43 51 30 80 47 16 10 11 9 10 9 12 16 8 15 5 15 3 16 1 11v19l-4 142-4 195-2 17-4 13-8 15-9 11-10 10-13 10-4 3-4 1h-65l-14-8-23-14-26-16-56-34-69-42-26-16-20-12-51-31-26-16-25-15-28-17-107-65-32-19-51-31-28-16-19-12-13-10-10-9-7-7-11-15-8-14-6-16-4-17-2-12-1-13v-18l1-45v-367l1-27 2-9 6-10 7-7z" fill="#1B42B8"/>
<path transform="translate(1017,389)" d="m0 0h26l12 4 11 7 9 10 6 13 2 9 4 54 5 81-1 53-3 23-5 17-8 16-9 12-12 12-18 12-22 13-26 16-22 14-19 12-25 16-17 11-24 15-19 12-26 15-18 8-13 4-12 2h-8l-14-3-12-6-7-6-7-10-4-10-2-9-3-48-4-92-1-28v-45l3-14 5-14 8-13 11-13 14-11 28-17 68-42 24-15 21-13 18-11 28-17 22-13 15-6 15-4z" fill="#BFC0C2"/>
<path transform="translate(1142,872)" d="m0 0h19l13 4 9 5 11 9 9 13 4 8 3 12 1 16 1 127v65l-2 14-4 12-6 12-9 11-9 8-19 12-28 17-32 19-23 14-50 30-32 19-13 8-32 19-11 5-10 3-7 1h-10l-12-2-14-6-13-9-7-7-6-9-4-13-1-7v-203l2-15 5-14 7-11 9-10 10-8 65-40 24-15 19-12 72-45 18-11 26-14 14-8z" fill="#BFC0C2"/>
<path transform="translate(619,250)" d="m0 0h17l11 4 8 6 8 9 6 12 3 11 1 7v154l-2 18-4 17-5 13-7 13-8 10-12 12-19 12-20 12-27 16-29 17-28 17-16 9-24 15-20 12-12 5-9 2h-19l-13-4-9-5-10-9-7-10-5-12-3-17-2-29-1-34v-46l1-38 2-25 5-16 6-11 7-9 11-11 14-9 29-17 27-16 29-17 27-16 56-32 27-15 11-4z" fill="#BFC0C2"/>
<path transform="translate(1544,1073)" d="m0 0 13 1 12 4 10 7 7 7 7 12 5 15 2 10 1 11 1 123v25l-3 17-6 15-7 12-11 12-7 7-18 12-25 14-21 12-50 28-27 15-29 16-24 13-12 6-13 4-6 1h-14l-13-4-8-6-8-9-6-13-3-15-1-11-1-50v-26l1-40 1-22 3-22 6-20 8-17 10-14 11-12 10-9 18-12 25-14 17-10 95-56 19-10 16-5z" fill="#BFC0C2"/>
<path transform="translate(982,31)" d="m0 0h20l12 5 10 9 7 11 6 15 1 3v53l-2 85-2 44-2 14-5 15-7 12-9 11-12 11-18 12-56 34-22 13-25 15-26 15-24 14-14 7-14 4-4 1h-21l-12-4-9-6-6-5-7-10-6-13-4-18-1-10-1-83v-37l-1-17 2-18 4-15 5-11 6-10 8-10 8-8 15-11 17-10 28-17 21-12 25-15 52-30 25-14 21-12 11-5z" fill="#BFC0C2"/>
<path transform="translate(1173,1289)" d="m0 0h10l10 2 12 5 10 9 7 9 5 10 4 13 2 13 1 24v131l-3 16-5 13-7 12-11 13-12 10-18 11-25 14-23 13-28 16-50 28-29 16-25 13-18 6-6 1h-14l-10-3-9-6-7-8-6-12-4-16-1-8-1-23v-93l1-23 2-18 4-17 6-17 10-18 9-11 7-8 11-9 15-10 26-14 17-10 25-15 32-19 22-13 25-14 17-8 15-4z" fill="#BFC0C2"/>
</svg>
